HIERARCHY
ROOT mixamorig:Hips
{
	OFFSET 0.571580 -3.265655 94.795082
	CHANNELS 6 Xposition Yposition Zposition Xrotation Yrotation Zrotation
	JOINT mixamorig:Spine
	{
		OFFSET 0.061281 -0.185594 10.180519
		CHANNELS 6 Xposition Yposition Zposition Xrotation Yrotation Zrotation
		JOINT mixamorig:Spine1
		{
			OFFSET -0.153446 -0.699182 9.977051
			CHANNELS 3 Xrotation Yrotation Zrotation
			JOINT mixamorig:Spine2
			{
				OFFSET -0.374491 -0.899731 9.271011
				CHANNELS 6 Xposition Yposition Zposition Xrotation Yrotation Zrotation
				JOINT mixamorig:Neck
				{
					OFFSET -1.337907 -2.429218 16.635742
					CHANNELS 6 Xposition Yposition Zposition Xrotation Yrotation Zrotation
					JOINT mixamorig:Head
					{
						OFFSET -1.941193 -5.230617 8.013443
						CHANNELS 6 Xposition Yposition Zposition Xrotation Yrotation Zrotation
						JOINT mixamorig:HeadTop_End
						{
							OFFSET -2.439337 -20.028807 11.610748
							CHANNELS 6 Xposition Yposition Zposition Xrotation Yrotation Zrotation
							JOINT mixamorig:HeadTop_End_end
							{
								OFFSET 1.575346 -13.672771 18.774628
								CHANNELS 3 Xrotation Yrotation Zrotation
								End Site
								{
									OFFSET 1.575346 -13.672775 18.774628
								}
							}
						}
					}
				}
				JOINT mixamorig:RightShoulder
				{
					OFFSET -4.181158 1.650342 11.255051
					CHANNELS 6 Xposition Yposition Zposition Xrotation Yrotation Zrotation
					JOINT mixamorig:RightArm
					{
						OFFSET -9.417368 5.254324 1.082520
						CHANNELS 3 Xrotation Yrotation Zrotation
						JOINT mixamorig:RightForeArm
						{
							OFFSET -10.964229 -2.113905 -25.504234
							CHANNELS 3 Xrotation Yrotation Zrotation
							JOINT mixamorig:RightHand
							{
								OFFSET 9.371755 -24.304811 11.134102
								CHANNELS 3 Xrotation Yrotation Zrotation
								JOINT mixamorig:RightHandThumb1
								{
									OFFSET 1.496964 -0.242775 3.666817
									CHANNELS 6 Xposition Yposition Zposition Xrotation Yrotation Zrotation
									JOINT mixamorig:RightHandThumb2
									{
										OFFSET 2.549553 -2.830681 1.742050
										CHANNELS 3 Xrotation Yrotation Zrotation
										JOINT mixamorig:RightHandThumb3
										{
											OFFSET 0.948030 -3.100893 1.075569
											CHANNELS 3 Xrotation Yrotation Zrotation
											JOINT mixamorig:RightHandThumb4
											{
												OFFSET -1.276028 -1.664776 -1.493660
												CHANNELS 3 Xrotation Yrotation Zrotation
												JOINT mixamorig:RightHandThumb4_end
												{
													OFFSET -1.121566 -1.843914 -1.404518
													CHANNELS 3 Xrotation Yrotation Zrotation
													End Site
													{
														OFFSET -1.121561 -1.843922 -1.404510
													}
												}
											}
										}
									}
								}
								JOINT mixamorig:RightHandIndex1
								{
									OFFSET -0.215992 -5.338520 7.732376
									CHANNELS 6 Xposition Yposition Zposition Xrotation Yrotation Zrotation
									JOINT mixamorig:RightHandIndex2
									{
										OFFSET 3.614896 -0.126127 -0.778839
										CHANNELS 3 Xrotation Yrotation Zrotation
										JOINT mixamorig:RightHandIndex3
										{
											OFFSET -1.393514 2.044405 -1.414604
											CHANNELS 3 Xrotation Yrotation Zrotation
											JOINT mixamorig:RightHandIndex4
											{
												OFFSET -1.630378 -1.487137 1.677940
												CHANNELS 3 Xrotation Yrotation Zrotation
												JOINT mixamorig:RightHandIndex4_end
												{
													OFFSET -1.630405 -1.487474 1.677582
													CHANNELS 3 Xrotation Yrotation Zrotation
													End Site
													{
														OFFSET -1.630409 -1.487473 1.677582
													}
												}
											}
										}
									}
								}
								JOINT mixamorig:RightHandMiddle1
								{
									OFFSET -0.914182 -7.084770 6.311813
									CHANNELS 6 Xposition Yposition Zposition Xrotation Yrotation Zrotation
									JOINT mixamorig:RightHandMiddle2
									{
										OFFSET 3.609035 -0.084759 -0.810974
										CHANNELS 3 Xrotation Yrotation Zrotation
										JOINT mixamorig:RightHandMiddle3
										{
											OFFSET -1.492885 2.099112 -1.437851
											CHANNELS 3 Xrotation Yrotation Zrotation
											JOINT mixamorig:RightHandMiddle4
											{
												OFFSET -1.679048 -1.618130 1.801361
												CHANNELS 3 Xrotation Yrotation Zrotation
												JOINT mixamorig:RightHandMiddle4_end
												{
													OFFSET -1.679124 -1.618824 1.800674
													CHANNELS 3 Xrotation Yrotation Zrotation
													End Site
													{
														OFFSET -1.679125 -1.618820 1.800674
													}
												}
											}
										}
									}
								}
								JOINT mixamorig:RightHandRing1
								{
									OFFSET -0.948297 -8.000570 4.631157
									CHANNELS 6 Xposition Yposition Zposition Xrotation Yrotation Zrotation
									JOINT mixamorig:RightHandRing2
									{
										OFFSET 3.342806 -0.303284 -0.391602
										CHANNELS 3 Xrotation Yrotation Zrotation
										JOINT mixamorig:RightHandRing3
										{
											OFFSET -0.820926 2.179104 -1.711143
											CHANNELS 3 Xrotation Yrotation Zrotation
											JOINT mixamorig:RightHandRing4
											{
												OFFSET -2.203262 -0.861185 1.169296
												CHANNELS 3 Xrotation Yrotation Zrotation
												JOINT mixamorig:RightHandRing4_end
												{
													OFFSET -2.202922 -0.858137 1.172195
													CHANNELS 3 Xrotation Yrotation Zrotation
													End Site
													{
														OFFSET -2.202911 -0.858143 1.172195
													}
												}
											}
										}
									}
								}
								JOINT mixamorig:RightHandPinky1
								{
									OFFSET -0.532018 -8.567652 2.504028
									CHANNELS 6 Xposition Yposition Zposition Xrotation Yrotation Zrotation
									JOINT mixamorig:RightHandPinky2
									{
										OFFSET 3.541368 0.450871 -0.464203
										CHANNELS 3 Xrotation Yrotation Zrotation
										JOINT mixamorig:RightHandPinky3
										{
											OFFSET -0.660721 1.558990 -1.242203
											CHANNELS 3 Xrotation Yrotation Zrotation
											JOINT mixamorig:RightHandPinky4
											{
												OFFSET -1.894598 -0.705582 0.623878
												CHANNELS 3 Xrotation Yrotation Zrotation
												JOINT mixamorig:RightHandPinky4_end
												{
													OFFSET -1.894614 -0.705456 0.624008
													CHANNELS 3 Xrotation Yrotation Zrotation
													End Site
													{
														OFFSET -1.894611 -0.705460 0.624008
													}
												}
											}
										}
									}
								}
							}
						}
					}
				}
				JOINT mixamorig:LeftShoulder
				{
					OFFSET 3.318475 -3.572391 11.095352
					CHANNELS 6 Xposition Yposition Zposition Xrotation Yrotation Zrotation
					JOINT mixamorig:LeftArm
					{
						OFFSET 9.771980 -4.618059 -0.798630
						CHANNELS 3 Xrotation Yrotation Zrotation
						JOINT mixamorig:LeftForeArm
						{
							OFFSET 7.257785 -13.292032 -23.362259
							CHANNELS 3 Xrotation Yrotation Zrotation
							JOINT mixamorig:LeftHand
							{
								OFFSET -19.909367 -8.510340 18.267807
								CHANNELS 6 Xposition Yposition Zposition Xrotation Yrotation Zrotation
								JOINT mixamorig:LeftHandThumb1
								{
									OFFSET -1.834057 2.108456 2.819260
									CHANNELS 6 Xposition Yposition Zposition Xrotation Yrotation Zrotation
									JOINT mixamorig:LeftHandThumb2
									{
										OFFSET -2.913577 0.560822 2.954376
										CHANNELS 3 Xrotation Yrotation Zrotation
										JOINT mixamorig:LeftHandThumb3
										{
											OFFSET -2.615861 -0.486206 2.146225
											CHANNELS 6 Xposition Yposition Zposition Xrotation Yrotation Zrotation
											JOINT mixamorig:LeftHandThumb4
											{
												OFFSET -2.339317 -0.854954 0.675400
												CHANNELS 3 Xrotation Yrotation Zrotation
												JOINT mixamorig:LeftHandThumb4_end
												{
													OFFSET -2.367481 -0.667557 0.780319
													CHANNELS 3 Xrotation Yrotation Zrotation
													End Site
													{
														OFFSET -2.367477 -0.667553 0.780334
													}
												}
											}
										}
									}
								}
								JOINT mixamorig:LeftHandIndex1
								{
									OFFSET -3.861249 -0.845917 8.528198
									CHANNELS 6 Xposition Yposition Zposition Xrotation Yrotation Zrotation
									JOINT mixamorig:LeftHandIndex2
									{
										OFFSET -3.587525 0.059029 0.903427
										CHANNELS 3 Xrotation Yrotation Zrotation
										JOINT mixamorig:LeftHandIndex3
										{
											OFFSET -0.961716 1.221874 -2.388443
											CHANNELS 3 Xrotation Yrotation Zrotation
											JOINT mixamorig:LeftHandIndex4
											{
												OFFSET 1.774214 0.691387 -2.018478
												CHANNELS 3 Xrotation Yrotation Zrotation
												JOINT mixamorig:LeftHandIndex4_end
												{
													OFFSET 1.774212 0.691303 -2.018509
													CHANNELS 3 Xrotation Yrotation Zrotation
													End Site
													{
														OFFSET 1.774209 0.691311 -2.018509
													}
												}
											}
										}
									}
								}
								JOINT mixamorig:LeftHandMiddle1
								{
									OFFSET -4.100232 -3.134060 8.015717
									CHANNELS 6 Xposition Yposition Zposition Xrotation Yrotation Zrotation
									JOINT mixamorig:LeftHandMiddle2
									{
										OFFSET -3.492460 -0.095783 1.218018
										CHANNELS 3 Xrotation Yrotation Zrotation
										JOINT mixamorig:LeftHandMiddle3
										{
											OFFSET -1.550400 1.212349 -2.197495
											CHANNELS 3 Xrotation Yrotation Zrotation
											JOINT mixamorig:LeftHandMiddle4
											{
												OFFSET 1.041238 1.036095 -2.561630
												CHANNELS 3 Xrotation Yrotation Zrotation
												JOINT mixamorig:LeftHandMiddle4_end
												{
													OFFSET 1.041233 1.036251 -2.561569
													CHANNELS 3 Xrotation Yrotation Zrotation
													End Site
													{
														OFFSET 1.041235 1.036251 -2.561569
													}
												}
											}
										}
									}
								}
								JOINT mixamorig:LeftHandRing1
								{
									OFFSET -4.373774 -4.585636 6.798141
									CHANNELS 6 Xposition Yposition Zposition Xrotation Yrotation Zrotation
									JOINT mixamorig:LeftHandRing2
									{
										OFFSET -3.033766 0.018379 0.847565
										CHANNELS 3 Xrotation Yrotation Zrotation
										JOINT mixamorig:LeftHandRing3
										{
											OFFSET -1.194180 1.253658 -2.388458
											CHANNELS 3 Xrotation Yrotation Zrotation
											JOINT mixamorig:LeftHandRing4
											{
												OFFSET 1.374266 0.785732 -2.118118
												CHANNELS 3 Xrotation Yrotation Zrotation
												JOINT mixamorig:LeftHandRing4_end
												{
													OFFSET 1.374264 0.785812 -2.118073
													CHANNELS 3 Xrotation Yrotation Zrotation
													End Site
													{
														OFFSET 1.374268 0.785812 -2.118073
													}
												}
											}
										}
									}
								}
								JOINT mixamorig:LeftHandPinky1
								{
									OFFSET -4.757825 -5.752323 4.924423
									CHANNELS 6 Xposition Yposition Zposition Xrotation Yrotation Zrotation
									JOINT mixamorig:LeftHandPinky2
									{
										OFFSET -3.457662 -0.147011 0.991470
										CHANNELS 3 Xrotation Yrotation Zrotation
										JOINT mixamorig:LeftHandPinky3
										{
											OFFSET -1.007335 0.890823 -1.612976
											CHANNELS 3 Xrotation Yrotation Zrotation
											JOINT mixamorig:LeftHandPinky4
											{
												OFFSET 0.810720 0.687283 -1.840683
												CHANNELS 3 Xrotation Yrotation Zrotation
												JOINT mixamorig:LeftHandPinky4_end
												{
													OFFSET 0.810662 0.686115 -1.841156
													CHANNELS 3 Xrotation Yrotation Zrotation
													End Site
													{
														OFFSET 0.810665 0.686111 -1.841156
													}
												}
											}
										}
									}
								}
							}
						}
					}
				}
			}
		}
	}
	JOINT mixamorig:RightUpLeg
	{
		OFFSET -5.262214 6.632543 -6.620453
		CHANNELS 6 Xposition Yposition Zposition Xrotation Yrotation Zrotation
		JOINT mixamorig:RightLeg
		{
			OFFSET -13.892944 2.484846 -42.067097
			CHANNELS 3 Xrotation Yrotation Zrotation
			JOINT mixamorig:RightFoot
			{
				OFFSET 13.096161 20.349625 -37.377926
				CHANNELS 3 Xrotation Yrotation Zrotation
				JOINT mixamorig:RightToeBase
				{
					OFFSET -8.938315 -5.901133 -8.728691
					CHANNELS 6 Xposition Yposition Zposition Xrotation Yrotation Zrotation
					JOINT mixamorig:RightToe_End
					{
						OFFSET -7.742551 -5.111675 0.082933
						CHANNELS 3 Xrotation Yrotation Zrotation
						JOINT mixamorig:RightToe_End_end
						{
							OFFSET -7.742550 -5.111676 0.082933
							CHANNELS 3 Xrotation Yrotation Zrotation
							End Site
							{
								OFFSET -7.742552 -5.111676 0.082933
							}
						}
					}
				}
			}
		}
	}
	JOINT mixamorig:LeftUpLeg
	{
		OFFSET 7.158144 -4.097486 -6.890831
		CHANNELS 6 Xposition Yposition Zposition Xrotation Yrotation Zrotation
		JOINT mixamorig:LeftLeg
		{
			OFFSET 0.830040 -22.887587 -38.003807
			CHANNELS 3 Xrotation Yrotation Zrotation
			JOINT mixamorig:LeftFoot
			{
				OFFSET 16.070894 5.809891 -41.118088
				CHANNELS 3 Xrotation Yrotation Zrotation
				JOINT mixamorig:LeftToeBase
				{
					OFFSET -4.605972 -9.627884 -8.774727
					CHANNELS 6 Xposition Yposition Zposition Xrotation Yrotation Zrotation
					JOINT mixamorig:LeftToe_End
					{
						OFFSET -4.008911 -8.356323 0.428456
						CHANNELS 3 Xrotation Yrotation Zrotation
						JOINT mixamorig:LeftToe_End_end
						{
							OFFSET -4.008916 -8.356323 0.428456
							CHANNELS 3 Xrotation Yrotation Zrotation
							End Site
							{
								OFFSET -4.008915 -8.356331 0.428456
							}
						}
					}
				}
			}
		}
	}
}
MOTION
Frames: 4
Frame Time: 0.033333
11.544591 -40.250839 90.605499 -0.200008 2.095556 22.388049 0.061281 -0.185591 10.180537 9.963302 -4.393781 0.422911 -2.703159 -0.804889 -0.708987 -0.374491 -0.899733 9.271012 -2.692106 -0.807771 -0.696824 -1.337910 -2.429219 16.635731 -1.385428 -2.931836 -3.782844 -1.941182 -5.230605 8.013426 -2.982201 0.129065 -10.785635 -2.439344 -20.028803 11.610732 -0.000002 -0.000001 -0.000003 -0.000001 -0.000002 0.000001 -4.181156 1.650347 11.255040 -0.240363 -4.750726 1.833554 4.161414 18.847636 -21.062983 -2.768411 -0.533815 1.221656 3.976098 5.897701 4.707988 1.496957 -0.242788 3.666803 0.000004 0.000003 0.000003 -0.000003 0.000000 0.000007 -0.000001 -0.000002 -0.000007 -0.000000 -0.000002 -0.000008 0.000002 -0.000001 0.000004 -0.215997 -5.338539 7.732344 0.000006 0.000006 0.000014 0.000000 0.000011 0.000012 -0.000009 -0.000008 -0.000005 0.000003 -0.000000 0.000003 -0.000002 -0.000000 0.000002 -0.914181 -7.084784 6.311828 0.000003 -0.000002 0.000001 -0.000004 -0.000007 -0.000006 -0.000008 0.000004 0.000008 0.000007 -0.000002 -0.000002 -0.000001 0.000001 -0.000001 -0.948301 -8.000559 4.631162 0.000007 -0.000004 0.000003 0.000003 0.000002 -0.000000 -0.000005 -0.000010 -0.000009 0.000001 0.000000 0.000002 0.000002 -0.000000 0.000001 -0.532015 -8.567654 2.504022 0.000004 -0.000002 0.000003 -0.000008 -0.000002 0.000001 -0.000003 0.000000 0.000003 0.000001 -0.000000 0.000001 -0.000003 0.000003 -0.000000 3.318476 -3.572383 11.095321 -1.249806 -1.395291 -1.092847 -11.564299 -2.149432 -7.952346 3.752351 -2.684203 2.812933 -19.909376 -8.510331 18.267822 0.470491 0.099166 -1.332019 -1.834065 2.108453 2.819275 0.000001 -0.000001 0.000009 0.000002 -0.000005 -0.000002 -2.615880 -0.486220 2.146241 0.000003 -0.000001 -0.000001 0.000006 -0.000000 -0.000002 0.000001 0.000001 -0.000000 -3.861253 -0.845917 8.528176 -0.000009 -0.000008 -0.000006 -0.000001 0.000018 0.000006 -0.000003 0.000007 0.000004 0.000005 0.000001 -0.000001 -0.000001 0.000000 -0.000001 -4.100237 -3.134057 8.015697 0.000003 0.000004 0.000000 -0.000003 0.000001 0.000001 0.000005 -0.000002 -0.000002 0.000003 -0.000001 -0.000001 0.000002 0.000003 -0.000000 -4.373789 -4.585627 6.798097 -0.000008 -0.000010 -0.000008 0.000002 0.000016 0.000003 0.000003 0.000012 0.000004 0.000004 -0.000004 -0.000001 -0.000000 -0.000000 0.000000 -4.757826 -5.752339 4.924434 -0.000003 -0.000004 -0.000006 0.000001 0.000001 -0.000002 0.000000 -0.000004 -0.000000 0.000001 0.000003 0.000001 0.000000 0.000002 0.000001 -5.262204 6.632544 -6.620440 7.715634 4.980189 -4.208691 11.714281 -11.265613 4.849461 7.006680 -13.508455 -1.160300 -8.938313 -5.901131 -8.728691 -2.028952 2.479857 0.054837 -0.000001 0.000001 0.000006 0.000002 0.000001 0.000001 7.158151 -4.097481 -6.890812 -12.367982 12.212874 -8.094483 5.705374 -3.039209 -0.061878 9.297417 -9.785067 -0.097818 -4.605970 -9.627889 -8.774716 -1.189579 0.570567 0.004280 0.000000 -0.000000 0.000000 -0.000000 0.000000 0.000002 
11.041259 -38.554989 90.232803 -1.356688 2.153053 17.312988 0.061280 -0.185589 10.180562 9.836267 -4.048638 -0.046977 -2.606291 -0.471286 -0.655652 -0.374495 -0.899738 9.271021 -2.595156 -0.473505 -0.649135 -1.337909 -2.429214 16.635731 -0.919371 -2.310419 -3.030673 -1.941192 -5.230603 8.013409 -1.333738 0.635014 -8.104678 -2.439337 -20.028803 11.610747 -0.000002 -0.000001 -0.000003 0.000000 -0.000001 0.000001 -4.181155 1.650351 11.255032 -0.206237 -3.431925 1.284457 0.470684 14.542267 -16.354709 -4.491420 -0.896834 1.971030 1.540951 3.918885 2.121304 1.496956 -0.242782 3.666812 0.000005 0.000001 -0.000000 -0.000001 0.000009 0.000004 -0.000003 0.000003 -0.000007 -0.000000 0.000006 -0.000005 -0.000000 0.000001 0.000003 -0.215995 -5.338535 7.732362 0.000005 0.000005 0.000015 -0.000000 0.000011 0.000009 -0.000001 -0.000007 -0.000006 0.000008 -0.000002 0.000001 -0.000003 -0.000002 -0.000003 -0.914178 -7.084785 6.311816 0.000008 -0.000000 0.000001 -0.000004 -0.000010 -0.000004 -0.000001 0.000005 0.000007 -0.000001 -0.000003 -0.000001 0.000002 -0.000000 0.000000 -0.948295 -8.000556 4.631149 0.000004 -0.000002 0.000002 0.000007 -0.000004 -0.000001 -0.000008 -0.000010 -0.000005 0.000004 -0.000005 0.000001 -0.000003 0.000003 -0.000002 -0.532016 -8.567660 2.504033 0.000009 -0.000002 0.000002 -0.000009 -0.000000 0.000005 -0.000003 -0.000000 0.000005 0.000002 0.000002 0.000001 -0.000007 0.000001 -0.000002 3.318478 -3.572385 11.095328 -1.338009 -1.365176 -0.839003 -10.157735 -1.989081 -5.931527 3.265427 -2.351734 2.443661 -19.909365 -8.510341 18.267832 -0.578922 0.090816 -0.829834 -1.834053 2.108458 2.819277 0.000003 0.000003 0.000010 0.000003 -0.000003 0.000002 -2.615877 -0.486222 2.146212 0.000003 -0.000001 -0.000003 -0.000000 0.000003 -0.000000 0.000001 -0.000002 -0.000002 -3.861241 -0.845916 8.528175 -0.000008 -0.000009 -0.000007 -0.000005 0.000015 0.000004 0.000002 0.000006 0.000003 -0.000003 -0.000005 -0.000001 0.000002 0.000002 0.000000 -4.100232 -3.134059 8.015684 0.000006 0.000011 0.000002 -0.000002 -0.000001 -0.000001 0.000003 -0.000002 -0.000002 0.000005 -0.000003 -0.000002 0.000002 0.000003 -0.000000 -4.373776 -4.585631 6.798082 -0.000007 -0.000006 -0.000005 -0.000002 0.000012 0.000004 0.000003 0.000009 0.000001 0.000006 -0.000000 0.000003 -0.000003 0.000007 0.000001 -4.757817 -5.752333 4.924437 -0.000003 0.000000 -0.000002 -0.000000 0.000001 -0.000002 0.000002 -0.000008 -0.000002 -0.000002 0.000003 0.000000 0.000003 0.000002 0.000000 -5.262209 6.632547 -6.620423 7.711132 6.182554 -3.960897 13.064258 -11.022782 3.741921 6.632430 -13.605481 -1.271312 -8.938315 -5.901134 -8.728691 -3.283821 2.642676 0.115463 -0.000001 0.000001 -0.000008 0.000002 -0.000001 -0.000004 7.158144 -4.097478 -6.890810 -12.043916 9.800644 -6.244907 4.935603 -3.222826 0.480799 9.841123 -8.074197 1.727808 -4.605978 -9.627893 -8.774723 -0.842434 0.404080 0.001809 0.000000 -0.000000 -0.000002 -0.000000 -0.000000 0.000002 
10.103122 -36.474640 89.866898 -2.367173 2.024172 13.752369 0.061275 -0.185603 10.180533 9.279057 -3.589967 -0.311788 -2.427749 -0.362821 -0.620778 -0.374495 -0.899740 9.271021 -2.416603 -0.363986 -0.617807 -1.337909 -2.429216 16.635761 -0.582397 -1.721066 -2.463295 -1.941193 -5.230607 8.013416 -0.479894 1.418901 -6.263409 -2.439342 -20.028839 11.610776 0.000005 -0.000001 -0.000001 0.000004 -0.000002 0.000003 -4.181158 1.650347 11.255067 -0.192672 -2.657571 0.715558 -0.807071 11.110716 -12.054942 -5.268282 -1.068180 2.305945 -0.507488 3.820953 0.260093 1.496967 -0.242766 3.666811 -0.000002 0.000002 0.000001 -0.000003 0.000007 0.000001 -0.000002 0.000006 -0.000000 -0.000001 0.000003 -0.000004 0.000001 -0.000003 -0.000002 -0.215992 -5.338520 7.732343 -0.000006 0.000005 0.000016 0.000002 0.000013 0.000010 -0.000003 -0.000005 -0.000006 0.000001 -0.000003 0.000005 -0.000001 0.000001 -0.000001 -0.914178 -7.084769 6.311816 0.000001 0.000001 0.000000 -0.000003 -0.000005 -0.000003 -0.000003 0.000007 0.000004 0.000001 0.000001 0.000003 0.000002 0.000001 -0.000000 -0.948294 -8.000540 4.631153 0.000000 -0.000001 0.000002 0.000007 -0.000001 -0.000001 -0.000009 -0.000012 -0.000012 -0.000001 0.000005 -0.000000 -0.000004 0.000001 -0.000002 -0.532015 -8.567644 2.504027 0.000006 -0.000001 0.000002 -0.000004 0.000001 0.000008 -0.000002 -0.000004 0.000003 0.000006 0.000002 0.000002 -0.000004 -0.000004 -0.000005 3.318477 -3.572383 11.095345 -1.228805 -1.237860 -0.586568 -7.658251 -1.559442 -4.277609 2.686151 -1.950089 2.005930 -19.909380 -8.510334 18.267841 -1.047286 0.381108 -0.613131 -1.834056 2.108454 2.819276 0.000006 0.000003 0.000012 0.000001 0.000000 0.000003 -2.615871 -0.486212 2.146212 0.000006 0.000004 -0.000001 0.000006 0.000002 -0.000004 -0.000001 0.000000 -0.000002 -3.861249 -0.845918 8.528193 -0.000004 -0.000010 -0.000005 -0.000006 0.000016 0.000006 -0.000002 0.000008 0.000003 -0.000001 -0.000008 -0.000002 -0.000002 0.000005 0.000002 -4.100230 -3.134049 8.015714 0.000010 0.000009 0.000004 -0.000002 -0.000001 0.000000 0.000003 -0.000004 -0.000001 0.000001 0.000001 -0.000001 0.000001 0.000003 0.000000 -4.373772 -4.585621 6.798113 -0.000006 -0.000008 -0.000004 -0.000004 0.000010 0.000004 -0.000000 0.000009 0.000002 0.000003 -0.000003 0.000001 0.000001 0.000000 -0.000001 -4.757817 -5.752325 4.924438 -0.000002 -0.000000 -0.000002 0.000003 0.000003 0.000000 0.000002 -0.000005 0.000001 -0.000001 0.000002 -0.000002 -0.000000 0.000002 -0.000000 -5.262210 6.632535 -6.620466 7.681214 6.106053 -3.911423 13.582547 -10.340724 2.681293 3.863014 -14.748708 -2.311473 -8.938313 -5.901127 -8.728692 -6.695510 4.428146 0.389147 0.000001 0.000000 -0.000004 0.000000 -0.000001 -0.000002 7.158141 -4.097491 -6.890821 -11.524985 7.806552 -4.744610 2.958122 -3.148985 1.285691 11.540020 -6.839401 2.155495 -4.605967 -9.627887 -8.774717 -0.581160 0.278762 0.000620 0.000000 -0.000000 -0.000002 -0.000000 0.000000 0.000002 
8.777804 -33.927486 89.573174 -3.145260 1.621064 11.452057 0.061281 -0.185600 10.180530 8.451009 -2.926742 -0.300917 -2.085845 -0.428910 -0.569652 -0.374494 -0.899734 9.271019 -2.075378 -0.428210 -0.567646 -1.337907 -2.429222 16.635769 -0.421375 -1.157817 -1.993209 -1.941187 -5.230604 8.013420 -0.161029 1.887621 -5.230301 -2.439343 -20.028795 11.610730 0.000002 0.000000 -0.000005 -0.000001 -0.000001 -0.000003 -4.181155 1.650348 11.255063 -0.182969 -2.587901 0.777788 -0.560664 8.821975 -9.205430 -5.654613 -1.155163 2.471786 -1.693631 5.431875 -1.396217 1.496954 -0.242783 3.666810 0.000003 0.000001 0.000001 -0.000000 0.000005 0.000001 -0.000005 0.000001 -0.000007 0.000002 -0.000003 -0.000006 -0.000000 -0.000003 0.000003 -0.215994 -5.338533 7.732344 0.000003 0.000008 0.000016 0.000002 0.000014 0.000009 -0.000000 -0.000006 -0.000005 0.000005 -0.000004 -0.000000 -0.000004 0.000002 -0.000000 -0.914181 -7.084782 6.311814 0.000005 0.000000 0.000000 -0.000007 -0.000010 -0.000003 -0.000003 0.000005 0.000006 0.000003 -0.000003 -0.000001 -0.000003 -0.000000 -0.000003 -0.948298 -8.000545 4.631149 0.000002 -0.000002 0.000002 0.000014 -0.000003 0.000000 -0.000006 -0.000008 -0.000007 0.000001 -0.000005 0.000003 0.000005 -0.000002 -0.000003 -0.532017 -8.567656 2.504031 0.000011 -0.000001 0.000004 -0.000002 0.000003 0.000004 -0.000002 -0.000000 0.000003 -0.000003 -0.000001 0.000002 -0.000004 -0.000002 0.000001 3.318478 -3.572387 11.095340 -1.041869 -1.048579 -0.353519 -4.933822 -0.962656 -2.995129 2.062041 -1.509893 1.536304 -19.909372 -8.510330 18.267847 -1.105096 0.857761 -0.598709 -1.834059 2.108463 2.819275 0.000005 0.000001 0.000010 -0.000001 -0.000006 -0.000002 -2.615878 -0.486209 2.146228 -0.000000 0.000003 -0.000001 -0.000002 0.000001 0.000001 -0.000001 -0.000000 -0.000002 -3.861250 -0.845918 8.528193 -0.000007 -0.000009 -0.000003 -0.000001 0.000020 0.000006 0.000005 0.000005 0.000001 -0.000002 -0.000007 -0.000002 0.000003 0.000007 0.000001 -4.100234 -3.134052 8.015698 0.000006 0.000008 0.000004 0.000001 -0.000001 0.000000 -0.000006 -0.000004 -0.000000 0.000001 -0.000001 -0.000000 0.000000 0.000001 0.000001 -4.373779 -4.585629 6.798097 -0.000003 -0.000008 -0.000004 -0.000004 0.000011 0.000001 -0.000004 0.000011 0.000003 0.000006 -0.000001 0.000000 -0.000003 0.000006 -0.000000 -4.757822 -5.752337 4.924452 0.000001 -0.000004 -0.000002 0.000003 0.000002 0.000001 0.000001 -0.000005 0.000002 0.000003 0.000001 0.000000 0.000001 0.000004 0.000001 -5.262207 6.632538 -6.620449 7.552591 4.979943 -3.897846 12.942948 -8.046055 0.448534 -0.778514 -14.566041 -3.656213 -8.938314 -5.901129 -8.728692 -10.391423 5.952114 0.802451 -0.000001 0.000001 -0.000002 0.000000 0.000001 -0.000002 7.158144 -4.097485 -6.890825 -10.885238 6.216149 -3.352313 -0.050913 -2.422998 1.003965 14.580188 -6.034701 2.890999 -4.605972 -9.627883 -8.774727 -0.629742 0.302064 0.000798 0.000000 -0.000001 0.000002 -0.000000 0.000000 0.000002 
